<svg xmlns="http://www.w3.org/2000/svg" width="396" height="336"><defs><filter id="a" x="0" y=".3" width="395.8" height="336.7" filterUnits="userSpaceOnUse"><feFlood result="flood" flood-color="#2e9aff"/><feComposite result="composite" operator="in" in2="SourceGraphic"/><feBlend result="blend" in2="SourceGraphic"/></filter></defs><path d="M245 114h12a8 8 0 000-16h-12a8 8 0 000 16zm149 195l-10-24a20 20 0 00-18-12h-9V114h17a16 16 0 0016-13 16 16 0 00-9-18L215 4c-11-5-23-5-34 0L13 83a16 16 0 007 31h17v159h-7a20 20 0 00-19 12L1 309a21 21 0 002 19 20 20 0 0017 9h356a20 20 0 0016-9 19 19 0 002-19zM21 98l166-79a23 23 0 0121 0l167 79h-26a8 8 0 00-8 8 2 2 0 000 1v166h-32V162a32 32 0 10-64 0v111h-16V162a32 32 0 10-64 0v111h-16V162a32 32 0 10-64 0v111H53V114h156a8 8 0 000-16H21zm272 64v111h-32V162a16 16 0 1132 0zm-80 0v111h-32V162a16 16 0 1132 0zm-80 0v111h-32V162a16 16 0 1132 0zm246 157l-3 2H20a3 3 0 01-3-2 4 4 0 01-1-4l10-23a4 4 0 014-3h336a4 4 0 014 3l10 24a6 6 0 01-1 3z" fill-rule="evenodd" filter="url(#a)"/></svg>