<svg xmlns="http://www.w3.org/2000/svg" xmlns:xlink="http://www.w3.org/1999/xlink" width="396" height="336" viewBox="0 0 396 336">
  <defs>
    <style>
      .cls-1 {
        fill-rule: evenodd;
        filter: url(#filter);
      }
    </style>
    <filter id="filter" x="0.031" y="0.313" width="395.813" height="336.688" filterUnits="userSpaceOnUse">
      <feFlood result="flood" flood-color="#2e9aff"/>
      <feComposite result="composite" operator="in" in2="SourceGraphic"/>
      <feBlend result="blend" in2="SourceGraphic"/>
    </filter>
  </defs>
  <path class="cls-1" d="M245.4,113.536h11.2a8.009,8.009,0,0,0,0-16.018H245.4A8.009,8.009,0,0,0,245.4,113.536ZM394.2,309.367l-10-24.429a20.212,20.212,0,0,0-18.4-12.014H357V113.536h17.2a15.888,15.888,0,0,0,15.6-12.414A16.152,16.152,0,0,0,381,83.1L214.6,4.208C204.2-1,191.8-1,180.6,4.208L13.4,83.1a16.229,16.229,0,0,0,6.8,30.836H37V273.324H29.8a20.211,20.211,0,0,0-18.4,12.015l-10,24.028a20.87,20.87,0,0,0,2,18.822A19.615,19.615,0,0,0,19.8,337h356a19.615,19.615,0,0,0,16.4-8.81A18.622,18.622,0,0,0,394.2,309.367ZM20.6,97.518L187.4,18.625a22.847,22.847,0,0,1,20.4,0L374.6,97.518H349a8.028,8.028,0,0,0-8,8.009,1.935,1.935,0,0,0,.4,1.6c0,0.4-.4,1.2-0.4,1.6V272.924H309V161.593a32,32,0,1,0-64,0V273.324H229V161.593a32,32,0,1,0-64,0V273.324H149V161.593a32,32,0,1,0-64,0V273.324H53V113.536H209.4a8.009,8.009,0,0,0,0-16.018H20.6ZM293,161.593V273.324H261V161.593A16,16,0,1,1,293,161.593Zm-80,0V273.324H181V161.593A16,16,0,1,1,213,161.593Zm-80,0V273.324H101V161.593A16,16,0,1,1,133,161.593ZM379,319.379c-0.4.4-1.6,2-3.2,2H19.8a3.307,3.307,0,0,1-3.2-2,3.982,3.982,0,0,1-.4-4l10-23.628a4.4,4.4,0,0,1,4-2.4h336a4.4,4.4,0,0,1,4,2.4l10,24.028A6.241,6.241,0,0,1,379,319.379Z"/>
</svg>
