<svg xmlns="http://www.w3.org/2000/svg" xmlns:xlink="http://www.w3.org/1999/xlink" width="512" height="394" viewBox="0 0 512 394">
  <defs>
    <style>
      .cls-1 {
        fill-rule: evenodd;
        filter: url(#filter);
      }
    </style>
    <filter id="filter" x="0" y="0" width="512" height="394" filterUnits="userSpaceOnUse">
      <feFlood result="flood" flood-color="#2e9aff"/>
      <feComposite result="composite" operator="in" in2="SourceGraphic"/>
      <feBlend result="blend" in2="SourceGraphic"/>
    </filter>
  </defs>
  <path class="cls-1" d="M469.256,116.415h-52.1V42.792A42.816,42.816,0,0,0,374.412,0H42.744A42.818,42.818,0,0,0,0,42.793v192a42.816,42.816,0,0,0,42.744,42.791h52.1v73.627A42.816,42.816,0,0,0,137.59,394H469.256A42.816,42.816,0,0,0,512,351.208v-192A42.816,42.816,0,0,0,469.256,116.415ZM24.425,42.793A18.35,18.35,0,0,1,42.744,24.454H374.412a18.35,18.35,0,0,1,18.319,18.339v17.07H24.425V42.793ZM94.846,159.206v93.922h-52.1a18.35,18.35,0,0,1-18.319-18.339V140.943h74.52A42.557,42.557,0,0,0,94.846,159.206ZM24.425,116.491V84.316H392.731v32.1H137.59c-0.826,0-1.644.029-2.458,0.076H24.425ZM469.256,369.547H137.59a18.35,18.35,0,0,1-18.319-18.339v-192A18.344,18.344,0,0,1,136.1,140.943H404.94a12.169,12.169,0,0,0,1.331-.076h62.984a18.35,18.35,0,0,1,18.319,18.339v192h0A18.35,18.35,0,0,1,469.256,369.547ZM340.211,196.271a58.533,58.533,0,0,0-36.745,12.939,58.941,58.941,0,1,0,0,91.995A58.893,58.893,0,1,0,340.211,196.271ZM287.953,282.3a34.489,34.489,0,1,1,0-54.178A58.789,58.789,0,0,0,287.953,282.3Zm52.258,7.4a34.484,34.484,0,1,1,34.445-34.485A34.5,34.5,0,0,1,340.211,289.691Z"/>
</svg>
