<svg xmlns="http://www.w3.org/2000/svg" width="512" height="394"><defs><filter id="a" x="0" y="0" width="512" height="394" filterUnits="userSpaceOnUse"><feFlood result="flood" flood-color="#2e9aff"/><feComposite result="composite" operator="in" in2="SourceGraphic"/><feBlend result="blend" in2="SourceGraphic"/></filter></defs><path d="M469 116h-52V43a43 43 0 00-43-43H43A43 43 0 000 43v192a43 43 0 0043 43h52v73a43 43 0 0043 43h331a43 43 0 0043-43V159a43 43 0 00-43-43zM24 43a18 18 0 0119-19h331a18 18 0 0119 19v17H24V43zm71 116v94H43a18 18 0 01-19-18v-94h75a43 43 0 00-4 18zm-71-43V84h369v32H24zm445 254H138a18 18 0 01-19-19V159a18 18 0 0117-18h269a12 12 0 001 0h63a18 18 0 0119 18v192a18 18 0 01-19 19zM340 196a59 59 0 00-37 13 59 59 0 100 92 59 59 0 1037-105zm-52 86a34 34 0 110-54 59 59 0 000 54zm52 8a34 34 0 1135-35 35 35 0 01-35 35z" fill-rule="evenodd" filter="url(#a)"/></svg>