<svg xmlns="http://www.w3.org/2000/svg" height="512" viewBox="0 0 934 935" width="512"><path d="M873 421h-31V171c0-8-7-15-16-15h-94l-31-98a16 16 0 00-20-10L554 96 497 7a16 16 0 00-22-4L241 156H110C49 156 1 205 1 265v561c0 60 48 109 109 109h716c9 0 16-7 16-16V732h31c35 0 62-27 62-62V483c0-34-27-62-62-62zm0 31a31 31 0 110 62h-31v-62zm-62-265v156h-20l-49-156zm-53 156h-45l-43-130c-2-6-8-10-15-10-16 0-31-7-42-18l-9-9c-5-4-11-6-17-4L126 343h-16c-21 0-41-8-56-23L676 83zm-78 0H216l373-138 2 2c14 14 33 24 53 26zM479 37l45 71-364 138zM110 187h84L36 290a77 77 0 0174-103zm701 717H110c-43 0-78-35-78-78V341v1l4 3 4 4 4 3 4 3 5 3 4 3 5 2 5 2 5 2 5 2 6 2 5 1 7 1h3l12 1h20v1l2-1h679v140H639a109 109 0 000 218h172zm93-234c0 17-14 31-31 31H639a78 78 0 010-156h234a62 62 0 0024-4l1-1 6-3zm0 0" data-original="#000000" class="active-path" data-old_color="#000000" fill="#2E9AFF"/><path d="M337 421h62v31h-62zm0 0M212 421h62v31h-62zm0 0M711 421h53v31h-53zm0 0M586 421h62v31h-62zm0 0M91 419l-7 30c8 2 17 3 26 3h40v-31h-40l-19-2zm0 0M461 421h63v31h-63zm0 0M91 824l-7 30c8 2 17 3 26 3h40v-31h-40l-19-2zm0 0M711 826h53v31h-53zm0 0M337 826h62v31h-62zm0 0M586 826h62v31h-62zm0 0M212 826h62v31h-62zm0 0M461 826h63v31h-63zm0 0M639 577a47 47 0 100 93 47 47 0 000-93zm0 62a16 16 0 110-31 16 16 0 010 31zm0 0" data-original="#000000" class="active-path" data-old_color="#000000" fill="#2E9AFF"/></svg>