<svg xmlns="http://www.w3.org/2000/svg" width="512" height="512"><path d="M341 289V85a85 85 0 00-170 0v204a128 128 0 0085 223 128 128 0 0085-223zm-85 180a85 85 0 01-57-149l14-12V85a43 43 0 0186 0v223l14 12c18 17 28 39 28 64 0 47-38 85-85 85z" data-original="#000000" class="active-path" data-old_color="#000000" fill="#4BAA00"/><path data-original="#000000" class="active-path" data-old_color="#000000" fill="#4BAA00" d="M235 171h42v256h-42z"/><circle cx="256" cy="384" r="64" data-original="#000000" class="active-path" data-old_color="#000000" fill="#4BAA00"/></svg>