<svg xmlns="http://www.w3.org/2000/svg" width="512" height="512" viewBox="0 0 612 612"><defs><filter id="a" x=".5" y=".5" width="612" height="612" filterUnits="userSpaceOnUse"><feFlood result="flood" flood-color="#a5a5a5"/><feComposite result="composite" operator="in" in2="SourceGraphic"/><feBlend result="blend" in2="SourceGraphic"/></filter></defs><path data-name="Forma 1" d="M307 613a306 306 0 110-613 306 306 0 010 613zm0-578a271 271 0 100 543 271 271 0 000-543zm93 383a17 17 0 01-12-5l-94-94a17 17 0 01-5-13V108a17 17 0 0135 0v191l89 89a17 17 0 01-13 30z" fill-rule="evenodd" filter="url(#a)"/></svg>