<svg xmlns="http://www.w3.org/2000/svg" xmlns:xlink="http://www.w3.org/1999/xlink" width="512" height="512" viewBox="0 0 512 512">
  <defs>
    <style>
      .cls-1 {
        fill-rule: evenodd;
        filter: url(#filter);
      }
    </style>
    <filter id="filter" x="0.188" y="0.188" width="511.625" height="511.813" filterUnits="userSpaceOnUse">
      <feFlood result="flood" flood-color="#55a831"/>
      <feComposite result="composite" operator="in" in2="SourceGraphic"/>
      <feBlend result="blend" in2="SourceGraphic"/>
    </filter>
  </defs>
  <path class="cls-1" d="M508.243,385.761L366.074,243.539l87.988-88.02a54.916,54.916,0,0,0,0-77.552L434.093,57.991a54.868,54.868,0,0,0-77.524,0l-87.988,88.02L126.381,3.758a12.181,12.181,0,0,0-17.228,0L3.756,109.194a12.192,12.192,0,0,0,0,17.235l142.2,142.253L73.42,341.246a12.153,12.153,0,0,0-3.516,5.821L41.246,456.009A12.182,12.182,0,0,0,56.126,470.9l107.952-28.418a12.176,12.176,0,0,0,6.506-3.375l72.867-72.893L385.619,508.431a12.179,12.179,0,0,0,17.227,0L508.242,403A12.188,12.188,0,0,0,508.243,385.761ZM373.8,75.224a30.481,30.481,0,0,1,43.068,0L436.836,95.2a30.508,30.508,0,0,1,0,43.083l-12.993,13L360.807,88.222Zm-30.221,30.233,63.036,63.06-15.2,15.208-63.036-63.059ZM29.6,117.811l88.17-88.2L150,61.848,131.855,80A12.184,12.184,0,1,0,149.082,97.23l18.141-18.147L190.532,102.4l-35.979,35.992a12.185,12.185,0,1,0,17.228,17.235l35.979-35.993,43.6,43.611-88.17,88.2ZM311.147,137.9l22.5,22.508L121.433,372.7l-22.5-22.508ZM70.121,442.009l17.947-68.221,50.25,50.269Zm91.849-28.757-23.309-23.318L350.874,177.643l23.311,23.317ZM394.232,482.58l-133.555-133.6,88.17-88.2,44.372,44.389L375.078,323.31a12.185,12.185,0,1,0,17.228,17.235l18.14-18.148,23.309,23.319-35.978,35.989A12.184,12.184,0,1,0,415,398.939l35.978-35.99L482.4,394.378Z"/>
</svg>
