<svg xmlns="http://www.w3.org/2000/svg" width="512" height="512"><defs><filter id="a" x=".2" y=".2" width="511.6" height="511.8" filterUnits="userSpaceOnUse"><feFlood result="flood" flood-color="#fff"/><feComposite result="composite" operator="in" in2="SourceGraphic"/><feBlend result="blend" in2="SourceGraphic"/></filter></defs><path d="M508 386L366 244l88-88a55 55 0 000-78l-20-20a55 55 0 00-77 0l-88 88L126 4a12 12 0 00-17 0L4 109a12 12 0 000 17l142 143-73 72a12 12 0 00-3 6L41 456a12 12 0 0015 15l108-29a12 12 0 007-3l72-73 143 142a12 12 0 0017 0l105-105a12 12 0 000-17zM374 75a30 30 0 0143 0l20 20a31 31 0 010 43l-13 13-63-63zm-30 30l63 64-16 15-63-63zM30 118l88-88 32 32-18 18a12 12 0 1017 17l18-18 24 23-36 36a12 12 0 1017 18l36-36 43 43-88 88zm281 20l23 22-213 213-22-23zM70 442l18-68 50 50zm92-29l-23-23 212-212 23 23zm232 70L261 349l88-88 44 44-18 18a12 12 0 1017 18l18-19 24 24-36 36a12 12 0 1017 17l36-36 31 31z" fill-rule="evenodd" filter="url(#a)"/></svg>