<svg xmlns="http://www.w3.org/2000/svg" width="511.36" height="512" viewBox="0 0 799 800">
  <defs>
    <style>
      .cls-1 {
        fill-rule: evenodd;
      }
    </style>
  </defs>
  <path class="cls-1" d="M631.994,495.513c-16.377-17.056-36.131-26.176-57.066-26.176-20.767,0-40.69,8.951-57.742,26.007l-53.353,53.2c-4.39-2.364-8.78-4.56-13-6.755-6.079-3.04-11.819-5.911-16.715-8.95-49.976-31.749-95.392-73.124-138.953-126.659-21.1-26.682-35.286-49.143-45.586-71.942,13.845-12.666,26.677-25.838,39.171-38.5,4.727-4.728,9.454-9.626,14.182-14.354,35.456-35.464,35.456-81.4,0-116.863l-46.093-46.1c-5.233-5.235-10.636-10.64-15.7-16.043C231.008,91.9,220.37,81.088,209.4,70.955c-16.377-16.212-35.962-24.825-56.56-24.825s-40.521,8.612-57.4,24.825l-0.338.338-57.4,57.925C16.078,150.834,3.753,177.179,1.052,207.746-3,257.058,11.52,302.993,22.663,333.053c27.352,73.8,68.21,142.2,129.16,215.488,73.951,88.323,162.927,158.07,264.567,207.213,38.832,18.408,90.665,40.192,148.577,43.908,3.544,0.169,7.259.338,10.636,0.338,39,0,71.756-14.017,97.418-41.882,0.169-.337.507-0.506,0.676-0.844,8.779-10.64,18.909-20.266,29.546-30.567,7.26-6.924,14.689-14.186,21.95-21.785,16.713-17.395,25.493-37.66,25.493-58.432,0-20.94-8.947-41.037-26-57.925Zm60.444,177.829c-0.169,0-.169.169,0,0-6.585,7.092-13.338,13.51-20.6,20.6-10.974,10.471-22.118,21.448-32.585,33.776-17.053,18.239-37.145,26.852-63.483,26.852-2.532,0-5.234,0-7.767-.169-50.144-3.208-96.744-22.8-131.692-39.518-95.562-46.272-179.474-111.966-249.2-195.222C129.537,450.255,91.042,386.081,65.548,317.179c-15.7-42.05-21.442-74.813-18.91-105.718,1.688-19.758,9.286-36.14,23.3-50.156l57.574-57.587c8.273-7.769,17.052-11.991,25.663-11.991,10.637,0,19.247,6.417,24.65,11.822,0.169,0.169.338,0.337,0.507,0.507,10.3,9.625,20.091,19.589,30.39,30.228,5.234,5.405,10.637,10.809,16.039,16.381l46.093,46.1c17.9,17.9,17.9,34.451,0,52.352-4.9,4.9-9.624,9.795-14.52,14.523-14.182,14.524-27.689,28.035-42.378,41.207a3.928,3.928,0,0,0-.844.844c-14.52,14.524-11.819,28.709-8.78,38.335l0.507,1.52c11.987,29.047,28.871,56.4,54.534,89l0.169,0.168c46.6,57.419,95.73,102.171,149.927,136.454a230.586,230.586,0,0,0,20.766,11.315c6.079,3.039,11.819,5.91,16.715,8.95,0.676,0.338,1.351.845,2.027,1.183a36.6,36.6,0,0,0,16.715,4.221c14.012,0,22.792-8.782,25.662-11.653L549.1,527.431c5.741-5.741,14.858-12.665,25.5-12.665,10.468,0,19.078,6.586,24.312,12.327l0.338,0.338,93.029,93.052C709.659,637.708,709.659,655.44,692.438,673.342ZM432.092,190.183c44.235,7.43,84.418,28.371,116.5,60.458a215.3,215.3,0,0,1,60.443,116.526,22.654,22.654,0,0,0,22.454,18.914,30.109,30.109,0,0,0,3.884-.338A22.82,22.82,0,0,0,654.112,359.4,262.77,262.77,0,0,0,440.027,145.262a22.913,22.913,0,0,0-26.339,18.576A22.553,22.553,0,0,0,432.092,190.183ZM798.805,352.812c-15.027-88.154-56.561-168.371-120.381-232.207S534.407,15.226,446.274.2a22.766,22.766,0,1,0-7.429,44.922c78.678,13.341,150.434,50.664,207.5,107.575,57.067,57.081,94.211,128.854,107.549,207.55a22.656,22.656,0,0,0,22.456,18.915,30.124,30.124,0,0,0,3.883-.338A22.374,22.374,0,0,0,798.805,352.812Z"/>
</svg>
