<svg xmlns="http://www.w3.org/2000/svg" width="511.4" height="512" viewBox="0 0 799 800"><path d="M632 496a79 79 0 00-57-27c-21 0-41 9-58 26l-53 54-13-7-17-9c-50-32-95-73-139-127-21-27-35-49-45-72l39-38 14-15c35-35 35-81 0-116l-46-47-16-16-32-31c-16-16-36-25-56-25s-41 9-58 25l-57 58c-22 22-34 48-37 79-4 49 11 95 22 125a795 795 0 00394 423 412 412 0 00159 44c39 0 71-14 97-42l1-1c8-10 19-20 29-30l22-22c17-17 26-38 26-59 0-20-9-41-26-57zm60 177s0 1 0 0l-20 21c-11 10-22 21-33 34a81 81 0 01-63 27l-8-1c-50-3-97-22-132-39A750 750 0 0166 317c-16-42-22-75-19-106 1-19 9-36 23-50l58-57c8-8 17-12 25-12 11 0 19 6 25 12l31 30 16 17 46 46c18 18 18 34 0 52l-15 15c-14 14-27 28-42 41a4 4 0 00-1 1c-14 14-12 28-9 38l1 2c12 29 29 56 54 89h1c46 57 95 102 149 136a231 231 0 0021 11l17 9 2 2a37 37 0 0017 4c14 0 22-9 25-12l58-58c6-5 15-12 26-12 10 0 19 6 24 12l93 93c18 18 18 35 0 53zM432 190c44 8 85 29 117 61a215 215 0 0160 116 23 23 0 0022 19 30 30 0 004 0 23 23 0 0019-27 263 263 0 00-214-214 23 23 0 00-26 19 23 23 0 0018 26zm367 163A429 429 0 00446 0a23 23 0 10-7 45 384 384 0 01315 315 23 23 0 0022 19 30 30 0 004 0 22 22 0 0019-26z" fill-rule="evenodd"/></svg>