<?xml version="1.0"?>
<svg xmlns="http://www.w3.org/2000/svg" xmlns:xlink="http://www.w3.org/1999/xlink" version="1.1" id="Layer_1" x="0px" y="0px" viewBox="0 0 512 512" style="enable-background:new 0 0 512 512;" xml:space="preserve" width="512px" height="512px" class=""><g><g>
	<g>
		<path d="M444.46,148.945c8.31-9.899,13.871-21.948,15.835-34.923c0.648-4.28-2.295-8.273-6.575-8.921    c-4.276-0.649-8.273,2.295-8.921,6.575c-1.35,8.91-4.877,17.265-10.129,24.408c-4.925-6.024-10.173-11.839-15.749-17.414    c-21.266-21.266-45.962-37.847-72.833-49.261c10.241-13.343,26.231-21.529,43.912-21.529c23.593,0,44.641,14.964,52.376,37.237    c1.419,4.087,5.881,6.252,9.974,4.833c4.089-1.42,6.252-5.885,4.833-9.974c-9.921-28.572-36.92-47.769-67.182-47.769    c-24.306,0-46.121,12.063-59.038,31.406c-21.399-7.339-43.966-11.515-67.127-12.286v-8.049h26.047    c7.202,0,13.061-5.859,13.061-13.061V13.061C302.945,5.859,297.086,0,289.883,0h-67.767c-7.203,0-13.061,5.859-13.061,13.061    v17.156c0,7.203,5.859,13.061,13.061,13.061h26.046v8.049c-23.161,0.771-45.728,4.947-67.127,12.286    c-12.917-19.343-34.731-31.406-59.038-31.406c-39.206,0-71.1,31.894-71.1,71.099c0,16.977,6.009,33.034,16.622,45.664    c-27.245,38.545-41.928,84.455-41.928,132.623c0,61.543,23.966,119.405,67.485,162.923c0.753,0.753,1.521,1.487,2.284,2.229    c-0.026,0.393-0.043,0.788-0.043,1.187l-0.002,43.516c0,10.082,8.203,18.286,18.286,18.286h20.511    c10.082,0,18.286-8.203,18.286-18.286v-3.924C184.139,503.531,219.418,512,255.999,512c4.329,0,7.837-3.509,7.837-7.837    c0-4.328-3.508-7.837-7.837-7.837c-118.404,0-214.734-96.329-214.734-214.734S137.595,66.859,255.999,66.859    s214.734,96.329,214.734,214.734c0,52.073-18.872,102.297-53.14,141.421c-33.952,38.762-80.596,64.047-131.341,71.199    c-4.286,0.604-7.27,4.568-6.667,8.854c0.604,4.286,4.574,7.268,8.854,6.666c24.942-3.515,48.955-11.123,71.162-22.318v4.032    c0,10.082,8.203,18.286,18.286,18.286h20.511c10.082,0,18.286-8.203,18.286-18.286v-43.516c0-0.399-0.017-0.793-0.043-1.186    c4.406-4.286,8.664-8.749,12.742-13.405c36.772-41.983,57.024-95.875,57.024-151.747    C486.407,233.415,471.717,187.495,444.46,148.945z M110.992,460.665c8.205,6.67,16.8,12.728,25.734,18.152v12.63    c0,1.416-1.196,2.612-2.612,2.612h-20.511c-1.417,0-2.612-1.196-2.612-2.611L110.992,460.665z M93.077,118.67    c-5.578,5.578-10.828,11.394-15.754,17.419c-6.895-9.366-10.752-20.781-10.752-32.784c0-30.562,24.864-55.426,55.427-55.426    c17.681,0,33.672,8.186,43.912,21.529C139.039,80.823,114.343,97.404,93.077,118.67z M224.728,27.605V15.673h62.542v11.932    H224.728z M401.009,491.447c0,1.416-1.196,2.612-2.612,2.612h-20.511c-1.416,0-2.612-1.196-2.612-2.612v-12.709    c8.96-5.428,17.558-11.477,25.736-18.105V491.447z" data-original="#000000" class="active-path" data-old_color="#000000" fill="#FFFFFF"/>
	</g>
</g><g>
	<g>
		<path d="M314.488,224.327c-3.042-3.081-8.004-3.112-11.082-0.072l-29.358,28.977c-5.011-3.831-11.266-6.114-18.047-6.114    c-6.167,0-11.905,1.885-16.661,5.11l-43.115-47.232c-2.917-3.196-7.873-3.422-11.072-0.505c-3.196,2.917-3.422,7.875-0.504,11.072    l44.413,48.657c-1.819,3.85-2.842,8.147-2.842,12.68c0,16.421,13.359,29.78,29.78,29.78c16.421,0,29.78-13.359,29.78-29.78    c0-3.923-0.769-7.666-2.152-11.099l30.789-30.389C317.495,232.37,317.528,227.407,314.488,224.327z M255.999,291.004    c-7.778,0-14.106-6.328-14.106-14.106c0-7.778,6.328-14.106,14.106-14.106c7.778,0,14.106,6.328,14.106,14.106    C270.106,284.676,263.778,291.004,255.999,291.004z" data-original="#000000" class="active-path" data-old_color="#000000" fill="#FFFFFF"/>
	</g>
</g><g>
	<g>
		<path d="M255.999,88.67c-106.378,0-192.922,86.546-192.922,192.923s86.544,192.922,192.922,192.922    c33.969,0,67.395-8.993,96.666-26.008c28.386-16.501,52.286-40.127,69.118-68.327c2.218-3.717,1.003-8.527-2.714-10.746    c-3.72-2.22-8.527-1.003-10.746,2.713c-6.271,10.508-13.627,20.31-21.874,29.279l-5.104-5.103    c-3.06-3.06-8.022-3.059-11.083,0.001c-3.06,3.06-3.06,8.023,0.001,11.083l5.086,5.086c-9.342,8.527-19.58,16.082-30.56,22.464    c-24.761,14.393-52.767,22.518-81.421,23.713v-6.985c0-4.328-3.508-7.837-7.837-7.837c-4.329,0-7.837,3.509-7.837,7.837v6.957    c-42.907-1.99-81.873-19.303-111.544-46.584l4.65-4.651c3.06-3.06,3.06-8.023,0-11.083c-3.062-3.06-8.023-3.06-11.083,0    l-4.634,4.633c-27.12-29.719-44.274-68.673-46.149-111.527h6.507c4.329,0,7.837-3.509,7.837-7.837    c0-4.328-3.508-7.837-7.837-7.837h-6.507c1.875-42.855,19.03-81.809,46.15-111.528l4.633,4.633    c1.531,1.53,3.537,2.296,5.542,2.296c2.005,0,4.011-0.765,5.542-2.296c3.06-3.06,3.06-8.023,0-11.082l-4.65-4.65    c29.672-27.28,68.638-44.594,111.544-46.584v6.957c0,4.328,3.508,7.837,7.837,7.837c4.329,0,7.837-3.509,7.837-7.837v-6.992    c43.039,1.769,82.17,18.948,111.996,46.168l-5.102,5.101c-3.062,3.06-3.062,8.023-0.001,11.083    c1.531,1.53,3.536,2.296,5.542,2.296c2.005,0,4.011-0.765,5.541-2.295l5.119-5.119c27.378,29.781,44.716,68.922,46.601,112.013    h-7.444c-4.329,0-7.837,3.509-7.837,7.837c0,4.328,3.508,7.837,7.837,7.837h7.456c-0.788,18.07-4.302,35.764-10.476,52.703    c-1.485,4.066,0.61,8.563,4.677,10.046c4.069,1.484,8.563-0.613,10.046-4.679c7.695-21.105,11.596-43.28,11.596-65.908    C448.921,175.214,362.377,88.67,255.999,88.67z" data-original="#000000" class="active-path" data-old_color="#000000" fill="#FFFFFF"/>
	</g>
</g></g> </svg>
