<svg xmlns="http://www.w3.org/2000/svg" width="512" height="512"><path d="M444 149c9-10 14-22 16-35a8 8 0 10-15-2c-2 9-5 17-10 24a235 235 0 00-89-67c10-13 26-21 44-21 24 0 45 15 52 37a8 8 0 0015-5 71 71 0 00-126-16c-21-8-44-12-67-13v-8h26c7 0 13-6 13-13V13c0-7-6-13-13-13h-68c-7 0-13 6-13 13v17c0 7 6 13 13 13h26v8c-23 1-46 5-67 13a71 71 0 10-114 85 229 229 0 0026 296l2 2v44c0 11 9 19 19 19h20c10 0 18-8 18-19v-3c32 16 67 24 104 24a8 8 0 100-16 215 215 0 1130-2 8 8 0 002 16c25-4 49-11 72-23v4c0 11 8 19 18 19h20c10 0 19-8 19-19v-43-1a232 232 0 0027-298zM111 461l26 18v12c0 2-1 3-3 3h-20c-2 0-3-1-3-3v-30zM93 119l-16 17c-7-9-10-21-10-33a55 55 0 0199-34c-27 12-52 28-73 50zm132-91V16h62v12h-62zm176 463c0 2-1 3-3 3h-20c-2 0-3-1-3-3v-12l26-18v30z" data-original="#000000" class="active-path" data-old_color="#000000" fill="#FFF"/><path d="M314 224c-3-3-8-3-11 0l-29 29a30 30 0 00-35-1l-43-47a8 8 0 00-11 11l44 48a30 30 0 1055 2l30-31c3-3 4-8 0-11zm-58 67a14 14 0 110-28 14 14 0 010 28z" data-original="#000000" class="active-path" data-old_color="#000000" fill="#FFF"/><path d="M256 89a193 193 0 10166 291 8 8 0 00-14-8c-6 11-13 20-22 29l-5-5a8 8 0 00-11 11l5 5a178 178 0 01-112 47v-7a8 8 0 10-15 0v7c-43-2-82-20-112-47l5-5a8 8 0 00-11-11l-5 5c-27-30-44-69-46-112h6a8 8 0 100-15h-6c2-43 19-82 46-112l5 5a8 8 0 1011-11l-5-5c30-27 69-44 112-46v7a8 8 0 1015 0v-7c43 1 83 18 112 46l-5 5a8 8 0 1011 11l5-5c28 30 45 69 47 112h-7a8 8 0 100 15h7c-1 19-4 36-10 53a8 8 0 1014 6A193 193 0 00256 89z" data-original="#000000" class="active-path" data-old_color="#000000" fill="#FFF"/></svg>