<svg xmlns="http://www.w3.org/2000/svg" xmlns:xlink="http://www.w3.org/1999/xlink" width="503" height="512" viewBox="0 0 503 512">
  <defs>
    <style>
      .cls-1 {
        fill-rule: evenodd;
        filter: url(#filter);
      }
    </style>
    <filter id="filter" x="0" y="-0.094" width="503.219" height="512.094" filterUnits="userSpaceOnUse">
      <feFlood result="flood" flood-color="#fff"/>
      <feComposite result="composite" operator="in" in2="SourceGraphic"/>
      <feBlend result="blend" in2="SourceGraphic"/>
    </filter>
  </defs>
  <path class="cls-1" d="M500.846,498.2L13.8,10.869A8.081,8.081,0,0,0,0,16.587V503.913A8.084,8.084,0,0,0,8.081,512H495.133A8.087,8.087,0,0,0,500.846,498.2Zm-96.767-2.368h0V469.412a8.081,8.081,0,1,0-16.162,0v26.414H339.426V469.412a8.081,8.081,0,1,0-16.162,0v26.414h-48.49V469.412a8.081,8.081,0,1,0-16.162,0v26.414h-48.49V469.412a8.081,8.081,0,1,0-16.162,0v26.414H145.47V469.412a8.081,8.081,0,1,0-16.162,0v26.414H80.816V469.412a8.081,8.081,0,1,0-16.162,0v26.414H16.163V36.108L475.621,495.826H404.079ZM345.67,433.5L78.439,167.032a8.081,8.081,0,0,0-13.786,5.728V439.223a8.083,8.083,0,0,0,8.081,8.086H339.965A8.087,8.087,0,0,0,345.67,433.5ZM80.816,431.137v-238.9l239.591,238.9H80.816Zm96.767-213.262L56.9,97.121A8.084,8.084,0,0,0,45.47,108.558L166.155,229.311A8.084,8.084,0,1,0,177.583,217.875Zm43.1,47.439L199.133,243.75a8.084,8.084,0,0,0-11.428,11.437l21.551,21.563A8.084,8.084,0,1,0,220.684,265.314Zm280.165,10.218-60.958-60.987L253.391,27.939a0.185,0.185,0,0,1-.014-0.014l-0.023-.023c-0.038-.038-0.079-0.068-0.116-0.105-0.153-.147-0.308-0.292-0.472-0.427-0.072-.06-0.15-0.112-0.224-0.169-0.136-.1-0.271-0.208-0.414-0.3-0.1-.067-0.2-0.125-0.307-0.188-0.122-.074-0.243-0.151-0.37-0.219s-0.255-.125-0.384-0.184c-0.11-.052-0.217-0.107-0.329-0.153-0.156-.065-0.316-0.119-0.475-0.172-0.092-.031-0.18-0.067-0.273-0.1-0.2-.059-0.4-0.107-0.6-0.151-0.058-.013-0.113-0.031-0.172-0.043l-0.036-.008-0.01,0L142.656,4.366a7.807,7.807,0,0,0-.907-0.14c-0.043,0-.085,0-0.127-0.008-0.069,0-.139-0.006-0.208-0.011-0.148-.008-0.293-0.021-0.442-0.019-0.1,0-.2.008-0.3,0.011-0.08,0-.16.008-0.239,0.013-0.042,0-.084,0-0.125.006s-0.078,0-.117.006c-0.166.016-.329,0.043-0.493,0.069-0.059.01-.12,0.017-0.179,0.028a8.026,8.026,0,0,0-1.779.54c-0.047.02-.094,0.045-0.141,0.067-0.163.074-.326,0.149-0.483,0.234-0.067.037-.129,0.079-0.195,0.116s-0.135.081-.2,0.122c-0.089.055-.182,0.107-0.269,0.166s-0.183.135-.275,0.2l-0.056.042c-0.053.04-.108,0.077-0.16,0.117s-0.094.07-.138,0.108c-0.076.061-.143,0.129-0.217,0.194-0.123.11-.249,0.22-0.367,0.337-0.048.048-.092,0.1-0.138,0.15-0.134.141-.266,0.285-0.39,0.435-0.025.03-.045,0.063-0.07,0.093l0,0c-0.043.055-.084,0.111-0.126,0.167-0.092.121-.183,0.24-0.268,0.368-0.01.014-.017,0.029-0.027,0.044-0.041.064-.078,0.131-0.118,0.194s-0.08.128-.117,0.193-0.094.155-.137,0.236c-0.013.024-.023,0.049-0.034,0.072-0.064.122-.123,0.248-0.18,0.374-0.023.049-.049,0.1-0.07,0.144s-0.033.07-.049,0.106a8.05,8.05,0,0,0-.279.776,0.253,0.253,0,0,1-.01.037,8.11,8.11,0,0,0-.2.848c-0.014.074-.023,0.151-0.034,0.225-0.023.15-.05,0.3-0.064,0.45-0.008.082-.008,0.162-0.013,0.244s-0.011.176-.014,0.264-0.011.187-.011,0.281c0,0.144.012,0.287,0.019,0.43,0,0.077,0,.152.012,0.229,0,0.043,0,.086.008,0.129a7.922,7.922,0,0,0,.133.871l21.309,106.6a0.293,0.293,0,0,1,0,.029l0,0.025c0.03,0.153.072,0.3,0.111,0.451q0.066,0.255.149,0.505c0.051,0.154.1,0.309,0.161,0.459,0.036,0.088.078,0.174,0.116,0.261,0.064,0.144.127,0.288,0.2,0.427,0.043,0.085.093,0.167,0.139,0.251,0.077,0.14.156,0.278,0.243,0.412,0.05,0.078.1,0.154,0.155,0.231q0.142,0.207.3,0.4c0.054,0.069.108,0.137,0.164,0.2q0.176,0.21.368,0.406c0.039,0.04.071,0.083,0.11,0.122L343.127,311.364l60.955,60.989a8.078,8.078,0,0,0,11.428,0l85.337-85.384A8.094,8.094,0,0,0,500.849,275.532ZM247.64,45.056L422.746,220.262l-16,16.01L231.639,61.066ZM395.317,247.708l-19.048,19.059L201.161,91.56l9.514-9.519a0.1,0.1,0,0,0,.011-0.01l9.524-9.53ZM155.075,41.615l-3.8-19.033,5.318,1.064,13.705,2.743Zm3.81,19.06L189.342,30.2l41.906,8.386L199.257,70.595a0.1,0.1,0,0,1-.01.011L184.028,85.833a0.1,0.1,0,0,0-.011.01L167.265,102.6Zm14.847,58.332,16-16.009L364.84,278.2l-16,16.01ZM409.794,355.2l-49.526-49.555,21.714-21.726L434.174,231.7,483.7,281.254Zm47.95-76.952-21.55-21.563a8.084,8.084,0,0,0-11.429,11.436l21.551,21.564A8.084,8.084,0,0,0,457.744,278.251Zm43.1-178.207L439.89,39.055l-30.477-30.5a29.659,29.659,0,0,0-41.907,0L340.076,36a29.7,29.7,0,0,0,0,41.932l30.478,30.495,60.954,60.99a8.08,8.08,0,0,0,11.428,0l57.908-57.941A8.091,8.091,0,0,0,500.845,100.044ZM351.507,66.5a13.494,13.494,0,0,1,0-19.057L378.936,20a13.479,13.479,0,0,1,19.049,0l24.763,24.777-46.477,46.5Zm85.717,85.768L387.7,102.711l46.477-46.5L483.7,105.762Zm27.049-52.223-24.382-24.4a8.084,8.084,0,0,0-11.428,11.436l24.382,24.4A8.084,8.084,0,0,0,464.273,100.044Z"/>
</svg>
