<svg xmlns="http://www.w3.org/2000/svg" width="512" height="512"><defs><filter id="a" x="0" y="0" width="511.8" height="512" filterUnits="userSpaceOnUse"><feFlood result="flood" flood-color="#fff"/><feComposite result="composite" operator="in" in2="SourceGraphic"/><feBlend result="blend" in2="SourceGraphic"/></filter></defs><path d="M415 54a43 43 0 0126 26 9 9 0 1016-6 59 59 0 00-36-36 9 9 0 00-6 16zm-78 235a9 9 0 008 0c97-53 150-140 150-195a94 94 0 00-179-40 9 9 0 1015 7 77 77 0 01147 33c0 50-51 130-137 178-85-48-136-128-136-178a77 77 0 01107-71 9 9 0 107-15 94 94 0 00-131 86c0 55 52 142 149 195zm-226 35h68c10 0 27 13 42 24 19 14 36 27 52 27h51c13 0 20 6 20 7a9 9 0 0012-13c-1-1-12-11-32-11h-51c-10 0-27-12-42-23-19-15-36-28-52-28h-68a9 9 0 000 17zM43 457a13 13 0 10-13 12 13 13 0 0013-12zm464-99a34 34 0 00-20-16 33 33 0 00-26 4l-98 47c-15 8-31 8-64 8s-84-8-84-8a9 9 0 10-3 16c2 1 52 9 87 9s53 0 72-9l98-48a17 17 0 1117 29l-115 72c-1 0-25 16-81 16-48 0-123-41-124-42-1 0-19-9-55-9a9 9 0 000 17c31 0 47 7 47 7 3 2 79 44 132 44 62 0 89-18 90-18l115-72a34 34 0 0012-47zM60 273H9a9 9 0 000 17h51a9 9 0 018 9v187a9 9 0 01-8 9H9a9 9 0 000 17h51a26 26 0 0025-26V299a26 26 0 00-25-26z" fill-rule="evenodd" filter="url(#a)"/></svg>