<svg xmlns="http://www.w3.org/2000/svg" xmlns:xlink="http://www.w3.org/1999/xlink" width="512" height="512" viewBox="0 0 512 512">
  <defs>
    <style>
      .cls-1 {
        fill-rule: evenodd;
        filter: url(#filter);
      }
    </style>
    <filter id="filter" x="0" y="0" width="511.813" height="512" filterUnits="userSpaceOnUse">
      <feFlood result="flood" flood-color="#fff"/>
      <feComposite result="composite" operator="in" in2="SourceGraphic"/>
      <feBlend result="blend" in2="SourceGraphic"/>
    </filter>
  </defs>
  <path class="cls-1" d="M415.185,53.641a43.086,43.086,0,0,1,25.949,25.984,8.528,8.528,0,1,0,16.078-5.692,59.468,59.468,0,0,0-36.321-36.378A8.534,8.534,0,0,0,415.185,53.641ZM337.118,289.094a8.537,8.537,0,0,0,8.171,0C442.37,236.119,494.745,148.968,494.745,93.867A93.838,93.838,0,0,0,315.826,54.255a8.528,8.528,0,1,0,15.457,7.211,76.783,76.783,0,0,1,146.4,32.4c0,50.1-50.951,129.708-136.482,177.972C255.673,223.575,204.722,143.968,204.722,93.867a76.816,76.816,0,0,1,107.513-70.4,8.531,8.531,0,1,0,6.833-15.633A93.865,93.865,0,0,0,187.662,93.867C187.662,148.968,240.046,236.119,337.118,289.094ZM110.891,324.268h68.241c9.946,0,26.87,12.7,41.8,23.893,18.715,14.046,36.389,27.308,52.033,27.308h51.181c12.949,0,19.389,5.879,19.559,6.033a8.531,8.531,0,0,0,12.062-12.067c-1.135-1.126-11.61-11.034-31.621-11.034H272.962c-9.954,0-26.87-12.7-41.8-23.893-18.724-14.046-36.4-27.307-52.033-27.307H110.891A8.534,8.534,0,0,0,110.891,324.268ZM42.651,456.536a12.8,12.8,0,1,0-12.8,12.8A12.813,12.813,0,0,0,42.651,456.536ZM507.234,358.4a33.911,33.911,0,0,0-20.72-15.9,33.34,33.34,0,0,0-25.36,3.123l-98.182,47.805c-15.252,7.637-30.665,7.637-64.419,7.637-33.012,0-83.4-8.337-83.9-8.414a8.53,8.53,0,1,0-2.807,16.828c2.125,0.358,52.282,8.653,86.709,8.653,35.416,0,53.193,0,71.968-9.4l98.634-48.052A17.067,17.067,0,1,1,485.967,390.4L370.639,462.2c-0.247.154-24.848,15.667-80.618,15.667-48.357,0-123.064-41.182-124.139-41.771-0.768-.384-19.27-9.429-54.993-9.429a8.533,8.533,0,0,0,0,17.066c31.024,0,47,7.458,47.035,7.458,3.225,1.792,79.313,43.742,132.1,43.742,61.578,0,88.9-17.749,89.805-18.355l114.917-71.552A34.152,34.152,0,0,0,507.234,358.4ZM59.71,273.068H8.529a8.533,8.533,0,0,0,0,17.066H59.71a8.545,8.545,0,0,1,8.53,8.533V486.4a8.545,8.545,0,0,1-8.53,8.533H8.529a8.533,8.533,0,0,0,0,17.066H59.71A25.627,25.627,0,0,0,85.3,486.4V298.668A25.627,25.627,0,0,0,59.71,273.068Z"/>
</svg>
