<svg xmlns="http://www.w3.org/2000/svg" xmlns:xlink="http://www.w3.org/1999/xlink" width="443" height="612" viewBox="0 0 443 612">
  <defs>
    <style>
      .cls-1 {
        fill-rule: evenodd;
        filter: url(#filter);
      }
    </style>
    <filter id="filter" x="0" y="0" width="443" height="612" filterUnits="userSpaceOnUse">
      <feFlood result="flood" flood-color="#fff"/>
      <feComposite result="composite" operator="in" in2="SourceGraphic"/>
      <feBlend result="blend" in2="SourceGraphic"/>
    </filter>
  </defs>
  <path id="Forma_1" data-name="Forma 1" class="cls-1" d="M401.344,42.3H325a31.123,31.123,0,0,0-29.444-21.149H263.266a51.815,51.815,0,0,0-83.532,0H147.446A31.123,31.123,0,0,0,118,42.3H41.656A41.694,41.694,0,0,0,0,83.935V570.363A41.694,41.694,0,0,0,41.656,612H401.344A41.694,41.694,0,0,0,443,570.363V83.935A41.694,41.694,0,0,0,401.344,42.3ZM118,104.423a31.123,31.123,0,0,0,29.444,21.149H295.554A31.123,31.123,0,0,0,325,104.423h55.849V549.875H62.153V104.423H118Zm29.444-63.447h37.606a9.919,9.919,0,0,0,8.572-4.928,32.061,32.061,0,0,1,55.75,0,9.924,9.924,0,0,0,8.572,4.928h37.608a11.25,11.25,0,0,1,11.24,11.236V94.485c0,0.009,0,.017,0,0.025v0.013a11.249,11.249,0,0,1-11.24,11.222H147.445a11.251,11.251,0,0,1-11.239-11.21c0-.009,0-0.017,0-0.025s0-.034,0-0.051V52.212A11.252,11.252,0,0,1,147.446,40.976ZM423.164,570.363a21.84,21.84,0,0,1-21.82,21.81H41.656a21.84,21.84,0,0,1-21.819-21.81V83.935a21.84,21.84,0,0,1,21.82-21.81H116.37V84.6H52.235a9.914,9.914,0,0,0-9.918,9.914V559.788a9.914,9.914,0,0,0,9.918,9.914h338.53a9.914,9.914,0,0,0,9.918-9.914V94.51a9.914,9.914,0,0,0-9.918-9.914H326.63V62.125h74.714a21.84,21.84,0,0,1,21.82,21.81V570.363ZM221.5,83.274a9.914,9.914,0,0,0,9.918-9.914V52.212a9.918,9.918,0,0,0-19.836,0V73.361A9.914,9.914,0,0,0,221.5,83.274Zm10.579,137.469h63.475a9.914,9.914,0,1,0,0-19.827H232.079A9.914,9.914,0,1,0,232.079,220.743Zm0,42.3H337.87a9.914,9.914,0,1,0,0-19.827H232.079A9.914,9.914,0,1,0,232.079,263.041Zm-102.226-2.9a9.925,9.925,0,0,0,14.028,0l52.9-52.872a9.916,9.916,0,1,0-14.027-14.021l-45.883,45.863-24.723-24.714a9.916,9.916,0,1,0-14.026,14.021Zm102.226,66.35h63.475a9.914,9.914,0,1,0,0-19.827H232.079A9.914,9.914,0,1,0,232.079,326.488Zm0,42.3H337.87a9.914,9.914,0,1,0,0-19.827H232.079A9.914,9.914,0,1,0,232.079,368.786Zm-102.226-2.9a9.925,9.925,0,0,0,14.028,0l52.9-52.872A9.916,9.916,0,1,0,182.75,298.99l-45.883,45.863-24.723-24.714A9.916,9.916,0,1,0,98.118,334.16Zm102.226,66.35h63.475a9.914,9.914,0,1,0,0-19.827H232.079A9.914,9.914,0,1,0,232.079,432.233Zm0,42.3H337.87a9.914,9.914,0,1,0,0-19.827H232.079A9.914,9.914,0,1,0,232.079,474.531Zm-102.226-2.9a9.927,9.927,0,0,0,14.028,0l52.9-52.873a9.916,9.916,0,0,0-14.027-14.02L136.867,450.6l-24.723-24.714a9.916,9.916,0,0,0-14.026,14.02Z"/>
</svg>
