<svg xmlns="http://www.w3.org/2000/svg" width="443" height="612"><defs><filter id="a" x="0" y="0" width="443" height="612" filterUnits="userSpaceOnUse"><feFlood result="flood" flood-color="#fff"/><feComposite result="composite" operator="in" in2="SourceGraphic"/><feBlend result="blend" in2="SourceGraphic"/></filter></defs><path data-name="Forma 1" d="M401 42h-76a31 31 0 00-29-21h-33a52 52 0 00-83 0h-33a31 31 0 00-29 21H42A42 42 0 000 84v486a42 42 0 0042 42h359a42 42 0 0042-42V84a42 42 0 00-42-42zm-283 62a31 31 0 0029 22h149a31 31 0 0029-22h56v446H62V104h56zm29-63h38a10 10 0 009-5 32 32 0 0155 0 10 10 0 009 5h38a11 11 0 0111 11v43a11 11 0 01-11 11H147a11 11 0 01-11-11V52a11 11 0 0111-11zm276 529a22 22 0 01-22 22H42a22 22 0 01-22-22V84a22 22 0 0122-22h74v23H52a10 10 0 00-10 10v465a10 10 0 0010 10h339a10 10 0 0010-10V95a10 10 0 00-10-10h-64V62h74a22 22 0 0122 22v486zM222 83a10 10 0 009-10V52a10 10 0 00-19 0v21a10 10 0 0010 10zm10 138h64a10 10 0 100-20h-64a10 10 0 100 20zm0 42h106a10 10 0 100-20H232a10 10 0 100 20zm-102-3a10 10 0 0014 0l53-53a10 10 0 10-14-14l-46 46-25-25a10 10 0 10-14 14zm102 66h64a10 10 0 100-19h-64a10 10 0 100 19zm0 43h106a10 10 0 100-20H232a10 10 0 100 20zm-102-3a10 10 0 0014 0l53-53a10 10 0 10-14-14l-46 46-25-25a10 10 0 10-14 14zm102 66h64a10 10 0 100-20h-64a10 10 0 100 20zm0 43h106a10 10 0 100-20H232a10 10 0 100 20zm-102-3a10 10 0 0014 0l53-53a10 10 0 00-14-14l-46 46-25-25a10 10 0 00-14 14z" fill-rule="evenodd" filter="url(#a)"/></svg>