<svg xmlns="http://www.w3.org/2000/svg" width="344" height="405"><defs><filter id="a" x="-.5" y=".9" width="344" height="405.1" filterUnits="userSpaceOnUse"><feFlood result="flood" flood-color="#fff"/><feComposite result="composite" operator="in" in2="SourceGraphic"/><feBlend result="blend" in2="SourceGraphic"/></filter></defs><path d="M342 338l-59-104c6-3 10-9 9-16l-4-37 25-27c6-5 6-15 1-22l-26-27 6-37c0-8-5-16-13-18l-37-7-17-32c-4-8-13-11-21-8l-33 16-33-16a16 16 0 00-21 6l-18 33-37 6a16 16 0 00-13 18l4 37-25 26c-5 6-6 15 0 22l25 27-5 38a16 16 0 0010 16L1 338c-2 2-2 6 0 8a8 8 0 006 4h64l30 51a8 8 0 006 4 8 8 0 007-4l57-98 57 99a8 8 0 007 4 8 8 0 007-4l29-52h64a8 8 0 007-4 7 7 0 000-8zm-234 43l-25-43a8 8 0 00-7-4H21l55-98 23 4 18 33c3 7 12 11 20 7l17-7 8 14zm23-115l-18-33c-2-4-6-7-11-8l-37-7 5-36a16 16 0 00-4-14l-25-27 26-26a15 15 0 004-13l-4-37a1 1 0 010-1l36-6a16 16 0 0012-8l18-32 32 16a15 15 0 0015 0l33-16 18 34c2 4 6 7 11 7l36 7-5 37a16 16 0 004 13l25 28-26 26a15 15 0 00-4 13l4 37-36 6a16 16 0 00-11 8l-18 32-33-16a15 15 0 00-14 0zm136 68a8 8 0 00-7 4l-25 44-56-98a6 6 0 00-2-2l-8-16 2-1 33 16a16 16 0 0021-7l18-32 24-4 55 96h-55zm-16-192a80 80 0 10-80 80 80 80 0 0080-80zm-80 64a64 64 0 1164-64 64 64 0 01-64 64z" fill-rule="evenodd" filter="url(#a)"/></svg>