<svg xmlns="http://www.w3.org/2000/svg" xmlns:xlink="http://www.w3.org/1999/xlink" width="344" height="405" viewBox="0 0 344 405">
  <defs>
    <style>
      .cls-1 {
        fill-rule: evenodd;
        filter: url(#filter);
      }
    </style>
    <filter id="filter" x="-0.469" y="0.938" width="344.032" height="405.063" filterUnits="userSpaceOnUse">
      <feFlood result="flood" flood-color="#fff"/>
      <feComposite result="composite" operator="in" in2="SourceGraphic"/>
      <feBlend result="blend" in2="SourceGraphic"/>
    </filter>
  </defs>
  <path class="cls-1" d="M342.4,338L283.236,234c6-2.8,9.594-9.2,9.194-16.4l-4.4-36.8,25.186-26.4c5.6-5.6,6-15.2.4-22l-25.185-27.2,5.2-37.2c0.8-8-4.8-16-12.793-17.6l-36.379-7.2-17.59-32.4C223.27,3.2,214.475,0,206.48,3.2h-0.4L172.5,18.8l-32.781-16a15.572,15.572,0,0,0-21.188,6.4l-17.99,32.4L64.162,48A16.41,16.41,0,0,0,50.97,66l4.4,36.8L30.182,129.2c-5.6,5.6-6,15.2-.4,22l25.185,27.2-5.2,37.2a16.47,16.47,0,0,0,10.394,16.8L0.6,338c-1.6,2.4-1.2,5.6,0,8a8.244,8.244,0,0,0,6.8,4H71.358l29.183,50.8a8.244,8.244,0,0,0,6.8,4,7.736,7.736,0,0,0,6.8-4L171.3,303.2,228.467,402a8.244,8.244,0,0,0,6.8,4,7.739,7.739,0,0,0,6.8-4l29.183-52h63.963a7.737,7.737,0,0,0,6.8-4A6.624,6.624,0,0,0,342.4,338ZM107.737,380.8L82.951,338a8.244,8.244,0,0,0-6.8-4H20.987l55.168-97.6,22.787,4,17.59,32.4c3.6,7.6,12.393,10.8,20.388,7.6h0.4l16.39-7.6,8,14ZM130.924,266h-0.4l-17.59-33.2c-2.4-4-6.4-7.2-11.194-7.6l-36.778-6.8,5.2-36.8a15.58,15.58,0,0,0-4-13.2L41.375,141.2l25.185-26.4a15.028,15.028,0,0,0,4.4-13.2l-4.4-36.4a1.239,1.239,0,0,1,.4-0.8L103.339,58a16.182,16.182,0,0,0,11.194-8l17.99-32.4,32.781,16a15.282,15.282,0,0,0,14.391,0l33.181-15.2h0.4l17.59,33.2c2.4,4,6.4,7.2,10.794,7.6l36.379,7.2-5.2,36.8a15.578,15.578,0,0,0,4,13.2l25.186,27.2L276.44,170a15.03,15.03,0,0,0-4.4,13.2l4.4,36.8-35.98,6a16.182,16.182,0,0,0-11.193,8l-17.99,32.4-32.781-16a15.284,15.284,0,0,0-14.392,0Zm135.921,68a7.737,7.737,0,0,0-6.8,4l-24.786,44L178.9,284.4a6.455,6.455,0,0,0-1.6-2.8L168.5,266l2.8-1.2,32.781,16a16.445,16.445,0,0,0,21.188-6.4l17.99-32.4,23.986-4.4L322.013,334H266.845ZM251.254,142A79.954,79.954,0,1,0,171.3,222,80.212,80.212,0,0,0,251.254,142ZM171.3,206a64,64,0,1,1,63.963-64A64.17,64.17,0,0,1,171.3,206Z"/>
</svg>
