<svg xmlns="http://www.w3.org/2000/svg" xmlns:xlink="http://www.w3.org/1999/xlink" width="512" height="427" viewBox="0 0 512 427">
  <defs>
    <style>
      .cls-1 {
        fill-rule: evenodd;
        filter: url(#filter);
      }
    </style>
    <filter id="filter" x="-0.469" y="1" width="512.469" height="427" filterUnits="userSpaceOnUse">
      <feFlood result="flood" flood-color="#fff"/>
      <feComposite result="composite" operator="in" in2="SourceGraphic"/>
      <feBlend result="blend" in2="SourceGraphic"/>
    </filter>
  </defs>
  <path class="cls-1" d="M319.84,98.73a203.232,203.232,0,0,0-69.761,3.1A10.676,10.676,0,1,0,254.6,122.7a181.626,181.626,0,0,1,62.339-2.814A10.674,10.674,0,1,0,319.84,98.73Zm77.818,55.3a10.673,10.673,0,0,0-4.227,14.493c0.843,1.536,1.645,3.095,2.382,4.633a10.677,10.677,0,0,0,19.249-9.243c-0.9-1.881-1.884-3.785-2.911-5.656A10.674,10.674,0,0,0,397.658,154.025Zm15.818,35.387a10.675,10.675,0,0,0-9.115,12.035,95.013,95.013,0,0,1-19.23,71.728,10.676,10.676,0,0,0,16.88,13.075,116.2,116.2,0,0,0,23.5-87.725A10.686,10.686,0,0,0,413.476,189.412Zm66.652-6.938a31.546,31.546,0,0,0-12.921,2.761c-5.773-34.019-21.866-63.192-47.392-85.455-25.108-21.9-58.037-36.375-95.974-42.319a42.705,42.705,0,1,0-80.721.337A247.466,247.466,0,0,0,191.605,71.79L137.511,24.955a10.677,10.677,0,0,0-17.612,7l-7.154,71.079c-30.9,17.494-50.519,42.847-59.875,77.335-5.342,19.7-8.738,20.839-19.692,21.763-16.82,1.415-24.965,8.637-28.837,14.446C-1.267,225-2,235.822,2.162,248.763l12.4,38.558C20.4,305.438,31.2,309.24,39.236,309.24H51.1c27.6,35.922,53.206,44.465,86.547,52.775-1.073,13.716-2.945,29.974-4.763,44.632H105.618a10.675,10.675,0,1,0,0,21.349H219.374a10.675,10.675,0,1,0,0-21.349H215.3l6.609-22.49c25.615,3.97,52.012,2.134,84.82-5.887q0.2,1.724.405,3.487c1.278,10.921,2.726,23.3,2.44,35.313A10.676,10.676,0,0,0,320.245,428h98.911a10.675,10.675,0,1,0,0-21.35H395.785c9.581-38.747,27.512-77.848,40.3-94.361a158.349,158.349,0,0,0,33.52-97.79,10.518,10.518,0,1,1,21.033,0,10.831,10.831,0,0,1-3.107,7.577,10.676,10.676,0,0,0,15.157,15.039A32.057,32.057,0,0,0,480.128,182.474ZM283.425,22.352A21.35,21.35,0,1,1,262.071,43.7,21.376,21.376,0,0,1,283.425,22.352ZM419.211,299.215C402.168,321.209,383,366.966,373.84,406.649H330.81c-0.394-9.634-1.479-18.914-2.469-27.371-0.64-5.463-1.243-10.624-1.588-15.276a10.676,10.676,0,0,0-13.493-9.5c-39.483,10.918-68.388,13-96.659,6.977a10.675,10.675,0,0,0-12.47,7.431L193.04,406.648H154.405c2.168-17.654,4.347-37.28,5.162-52.282a10.677,10.677,0,0,0-8.132-10.951c-37.238-9.078-59.715-14.559-86.35-51.133a10.681,10.681,0,0,0-8.631-4.391H39.238c-1.517,0-3.286-3.83-4.341-7.108l-12.4-38.556c-2.012-6.253-2.146-11.155-.378-13.808,1.789-2.684,6.355-4.463,12.86-5.01,24.391-2.057,32.351-14.748,38.508-37.449,10.939-40.324,36.19-57.408,54.233-66.751a10.679,10.679,0,0,0,5.714-8.41l5.66-56.237L182.6,92.231a10.673,10.673,0,0,0,11.184,1.746A230.862,230.862,0,0,1,257.242,77.4a42.573,42.573,0,0,0,52.67-.238C377.64,84.569,448.26,124.239,448.26,214.5A137.176,137.176,0,0,1,419.211,299.215ZM127.087,171.725A10.676,10.676,0,1,0,137.763,182.4,10.7,10.7,0,0,0,127.087,171.725ZM285.138,406.649h-9.963a10.675,10.675,0,1,0,0,21.35h9.963A10.675,10.675,0,1,0,285.138,406.649Z"/>
</svg>
