<svg xmlns="http://www.w3.org/2000/svg" width="512" height="427"><defs><filter id="a" x="-.5" y="1" width="512.5" height="427" filterUnits="userSpaceOnUse"><feFlood result="flood" flood-color="#fff"/><feComposite result="composite" operator="in" in2="SourceGraphic"/><feBlend result="blend" in2="SourceGraphic"/></filter></defs><path d="M320 99a203 203 0 00-70 3 11 11 0 105 21 182 182 0 0162-3 11 11 0 103-21zm78 55a11 11 0 00-5 15l3 4a11 11 0 0019-9l-3-6a11 11 0 00-14-4zm15 35a11 11 0 00-9 12 95 95 0 01-19 72 11 11 0 0017 13 116 116 0 0024-87 11 11 0 00-13-10zm67-7a32 32 0 00-13 3c-6-34-22-63-47-85s-58-37-96-43a43 43 0 10-81 1 247 247 0 00-51 14l-54-47a11 11 0 00-18 7l-7 71c-31 18-51 43-60 77-5 20-9 21-20 22-17 2-25 9-29 15-5 8-6 19-2 32l13 38c5 18 16 22 24 22h12c28 36 53 45 87 53l-5 45h-27a11 11 0 100 21h113a11 11 0 100-21h-4l7-23c26 4 52 2 85-6v4c1 11 3 23 3 35a11 11 0 0010 11h99a11 11 0 100-21h-23c9-39 27-78 40-95a158 158 0 0034-98 11 11 0 1121 0 11 11 0 01-3 8 11 11 0 0015 15 32 32 0 00-23-55zM283 22a21 21 0 11-21 22 21 21 0 0121-22zm136 277c-17 22-36 68-45 108h-43a360 360 0 00-4-43 11 11 0 00-14-9c-39 10-68 13-96 6a11 11 0 00-13 8l-11 38h-39l6-53a11 11 0 00-9-11c-37-9-59-14-86-51a11 11 0 00-9-4H39l-4-7-13-39c-2-6-2-11 0-14 2-2 6-4 13-5 24-2 32-14 38-37 11-40 37-57 55-67a11 11 0 005-8l6-56 44 37a11 11 0 0011 2 231 231 0 0163-17 43 43 0 0053 0c68 8 138 47 138 138a137 137 0 01-29 84zM127 172a11 11 0 1011 10 11 11 0 00-11-10zm158 235h-10a11 11 0 100 21h10a11 11 0 100-21z" fill-rule="evenodd" filter="url(#a)"/></svg>