<svg xmlns="http://www.w3.org/2000/svg" viewBox="0 1 511 512"><path fill="#FFF" d="M199 142c-6 0-10 5-10 10v36h-36a10 10 0 100 20h36v36a10 10 0 1020 0v-36h35a10 10 0 100-20h-35v-36c0-5-5-10-10-10zm-87 142a10 10 0 00-15 14h1a10 10 0 1014-14zm0 0" class="active-path" data-old_color="#000000" data-original="#000000"/><path fill="#FFF" d="M299 98A142 142 0 0072 262a10 10 0 1018-9 122 122 0 01195-141 121 121 0 010 172c-36 36-92 46-138 25a10 10 0 10-8 18 141 141 0 00160-29 141 141 0 000-200zm0 0" class="active-path" data-old_color="#000000" data-original="#000000"/><path fill="#FFF" d="M504 439L367 302a198 198 0 10-64 64l137 137a30 30 0 0042 0l22-21c11-12 11-31 0-43zM21 198a178 178 0 11356 0 178 178 0 01-356 0zm334 121l22 22-35 36-23-22c14-11 26-23 36-36zm135 148l-22 22c-4 4-10 4-14 0l-98-98 35-36 99 98c3 4 3 11 0 14zm0 0" class="active-path" data-old_color="#000000" data-original="#000000"/></svg>