<?xml version="1.0"?>
<svg xmlns="http://www.w3.org/2000/svg" height="512px" viewBox="0 1 511 511.99999" width="512px"><g><path d="m198.503906 142.355469c-5.523437 0-10 4.476562-10 10v35.648437h-35.648437c-5.523438 0-10 4.476563-10 10 0 5.523438 4.476562 10 10 10h35.648437v35.648438c0 5.523437 4.476563 10.003906 10 10.003906 5.523438 0 10-4.480469 10-10.003906v-35.648438h35.648438c5.523437 0 10.003906-4.476562 10.003906-10 0-5.523437-4.480469-10-10.003906-10h-35.648438v-35.648437c0-5.523438-4.476562-10-10-10zm0 0" data-original="#000000" class="active-path" data-old_color="#000000" fill="#FFFFFF"/><path d="m111.574219 283.605469c-3.882813-3.925781-10.210938-3.964844-14.140625-.085938-3.929688 3.878907-3.96875 10.210938-.089844 14.144531l.75.753907c1.953125 1.949219 4.511719 2.925781 7.070312 2.925781 2.558594 0 5.117188-.976562 7.070313-2.925781 3.90625-3.90625 3.90625-10.238281 0-14.144531zm0 0" data-original="#000000" class="active-path" data-old_color="#000000" fill="#FFFFFF"/><path d="m298.917969 97.59375c-55.367188-55.367188-145.457031-55.367188-200.824219 0-43.640625 43.640625-54.15625 109.882812-26.171875 164.839844 2.503906 4.921875 8.523437 6.878906 13.449219 4.375 4.917968-2.507813 6.878906-8.527344 4.371094-13.449219-24.042969-47.214844-15.003907-104.128906 22.496093-141.625 47.566407-47.570313 124.96875-47.570313 172.535157 0 23.042968 23.042969 35.734374 53.679687 35.734374 86.269531 0 32.585938-12.691406 63.226563-35.734374 86.269532-36.089844 36.089843-91.425782 45.898437-137.691407 24.40625-5.011719-2.332032-10.957031-.152344-13.28125 4.855468-2.328125 5.007813-.152343 10.957032 4.855469 13.28125 19.03125 8.839844 39.371094 13.132813 59.585938 13.132813 36.980468-.003907 73.515624-14.375 100.675781-41.535157 26.820312-26.820312 41.589843-62.480468 41.589843-100.410156 0-37.929687-14.769531-73.589844-41.589843-100.410156zm0 0" data-original="#000000" class="active-path" data-old_color="#000000" fill="#FFFFFF"/><path d="m503.722656 439.148438-136.933594-136.929688c18.828126-30.289062 29.71875-66.003906 29.71875-104.214844 0-109.179687-88.824218-198.003906-198.003906-198.003906-109.179687 0-198.003906 88.824219-198.003906 198.003906 0 109.179688 88.824219 198.003906 198.003906 198.003906 38.210938 0 73.917969-10.890624 104.207032-29.710937l136.929687 136.929687c5.851563 5.851563 13.53125 8.773438 21.214844 8.773438 7.683593 0 15.367187-2.925781 21.214843-8.773438l21.652344-21.648437c11.695313-11.699219 11.695313-30.730469 0-42.429687zm-483.222656-241.144532c0-98.152344 79.851562-178.003906 178.003906-178.003906s178.003906 79.851562 178.003906 178.003906-79.851562 178.003906-178.003906 178.003906-178.003906-79.851562-178.003906-178.003906zm334.695312 120.902344 22.136719 22.136719-35.792969 35.792969-22.136718-22.132813c13.398437-10.363281 25.433594-22.398437 35.792968-35.796875zm134.382813 148.527344-21.648437 21.652344c-3.898438 3.898437-10.246094 3.898437-14.144532 0l-98.105468-98.105469 35.792968-35.792969 98.105469 98.101562c3.898437 3.902344 3.898437 10.246094 0 14.144532zm0 0" data-original="#000000" class="active-path" data-old_color="#000000" fill="#FFFFFF"/></g> </svg>
